<?xml version="1.0" encoding="utf-8"?>
<!-- Generator: Adobe Illustrator 22.0.1, SVG Export Plug-In . SVG Version: 6.00 Build 0)  -->
<svg version="1.1" xmlns="http://www.w3.org/2000/svg" xmlns:xlink="http://www.w3.org/1999/xlink" x="0px" y="0px"
	 viewBox="0 0 133.1 56.9" style="enable-background:new 0 0 133.1 56.9;" xml:space="preserve">
<style type="text/css">
	.st0{fill:#FFFFFF;}
</style>
<g id="Layer_1">
	<title>parheliaAsset 3</title>
	<g id="Layer_2_1_">
		<g id="Layer_1-2">
			<path class="st0" d="M48.7,52.9c0.7-0.7,1.3-1.4,2-2c0.2-0.3,0.7-0.4,1-0.2c0.1,0,0.1,0.1,0.2,0.2c0.1,0.1,0.2,0.1,0.3,0.2
				c0-1.4,0-2.8,0.1-4.1c0.1-1,0-2-0.2-3c-0.1-0.7-0.2-1.3-0.1-2c0-0.3,0.2-0.6,0.3-0.9c0.2-0.4,0.6-0.8,0.8-1.2
				c0.8-1.1,1.8-2,2.9-2.8l0.7-0.6c0.2-0.2,0.5-0.2,0.7,0c0,0,0.1,0.1,0.1,0.1c0.3,0.4,0.6,0.8,1.1,1c0.2,0.1,0.4,0.3,0.6,0.5
				c0.3,0.3,0.4,0.9,0.1,1.3c-0.2,0.3-0.3,0.5-0.4,0.8c-0.3-0.1-0.6,0-0.8,0.4c-0.1,0.1-0.1,0.2-0.2,0.3l-1.1,0.7
				c-0.1-0.1-0.2-0.2-0.2-0.3c-0.2-0.6-0.7-0.9-1.2-1.2C55.2,39.8,55,40,55,40.3c0,0.7,0.1,1.4,0.1,2.1c0,1.4,0,2.8,0,4.1
				c0,0.4,0.1,0.8,0.1,1.2c0.1,0,0.2,0,0.2-0.1c0.5-0.6,1-1.1,1.4-1.7c0.1-0.1,0.1-0.2,0.2-0.3c0.7-0.6,1.4-1.2,2-1.8
				c0.4-0.6,1.2-0.7,1.8-0.3c0,0,0.1,0.1,0.1,0.1c1.1,0.7,1.9,1.8,2.3,3.1c0.3,1.1,0.5,2.1,0.5,3.2c0.1,1.1-0.3,2.1-1,2.9
				c-0.4,0.4-0.8,1-0.9,1.6c-0.5,0.9-1.3,1.6-2.3,1.9c0-0.2,0-0.3,0-0.5c0.1-0.3,0.2-0.5,0.4-0.8c0.4-0.5,0.8-1.2,0.9-1.9
				c0.1-0.3,0.1-0.7,0.1-1c-0.1-0.6-0.2-1.3-0.3-1.9c-0.2-1.6-1.1-3.1-2.4-4.1c-0.2-0.2-0.5-0.2-0.6,0c0,0,0,0,0,0
				c-0.8,0.8-1.6,1.5-2.3,2.3c-0.1,0.2-0.2,0.3-0.2,0.5c0,1.1-0.1,2.2-0.1,3.4c0,0.5-0.2,1-0.6,1.3c-0.6,0.5-1.2,1.1-1.7,1.8
				c-0.4,0.5-0.9,0.5-1.2-0.1c-0.3-0.8-1.2-0.9-1.7-1.4c0,0-0.3,0.1-0.4,0.3c-0.2,0.6-0.6,1.2-1.1,1.6c-0.1,0.1-0.1,0.1-0.2,0.2
				c-0.8,0.1-1.7-0.1-2.3-0.7c-0.9-1.1-1.7-2.4-2.2-3.8c-0.1-0.3-0.2-0.5-0.4-0.7c-0.4-0.4-0.4-1,0-1.5c0.6-1,1-2,1.5-3
				c0.7-1.6,0.6-3.3-0.2-4.8c-0.3-0.5-0.8-1-1.4-1.1c-0.3,0-0.6,0-0.8,0.1v2.7c0,0.4,0,0.9,0,1.3c0,1.4-0.1,2.7-0.2,4.1
				c-0.1,1.3-0.1,2.7,0.2,4c0.1,0.5-0.1,1-0.4,1.3c-0.6,0.6-1.1,1.3-1.7,1.9c-0.2,0.1-0.4,0.2-0.6,0.3c0,0-0.1,0-0.1,0
				c-1.2,0.5-2.3-0.1-3.3-0.4c-0.2-0.1-0.3-0.2-0.3-0.4c0-0.7,0-1.4,0-2.1c0-1.1,0.1-2.1,0-3.2c-0.2-2.5-0.3-5-0.3-7.5
				c0-0.2,0-0.3,0-0.5c0-1-0.4-1.4-1.5-1.3c-0.4,0-0.8,0-1.1-0.1c-0.3,0-0.5-0.3-0.2-0.5c0.6-0.8,1.2-1.6,1.9-2.3
				c0.2-0.1,0.4-0.2,0.7-0.2c0.8,0,1.7,0.1,2.5,0.2c0.3,0,0.4,0.1,0.4,0.4c0,0.5,0,1.1,0,1.6s0,1,0,1.6c0,1,0,2,0,3l0.1,6.7
				c0,0.4,0,0.7,0,1c0,0.3,0.2,0.6,0.5,0.6c0,0,0,0,0,0c0.3,0.1,0.5,0,0.5-0.4c0.3-2.7,0.4-5.4,0.2-8.1c0-1-0.3-2.1-0.3-3.1
				c0-0.4,0.1-0.7,0.3-1c0.4-0.5,0.9-0.9,1.3-1.4c0.6-1,1.7-1.4,2.9-1.2c0.4,0,0.9,0,1.3,0c1-0.1,2,0.6,2.3,1.5
				c0.9,1.7,0.9,3.6,0,5.3c-0.5,1-0.9,2.1-1.3,3.2c-0.1,0.2-0.1,0.3,0,0.5c0.6,1.5,1.4,2.9,2.4,4.3C48.4,52.6,48.5,52.8,48.7,52.9z"
				/>
			<path class="st0" d="M95.7,48.4c-0.4,0.4-0.7,0.8-1.2,1.2c-0.6,0.4-1.2,0.8-1.9,1.1c-0.2,0.1-0.4,0.4-0.8,0.3
				c-0.1,0-0.3,0.3-0.5,0.5c-0.1,0.2-0.2,0.4-0.3,0.5L91,51.5l-2.5,1.2v0.1c0.7-0.1,1.4-0.2,2.1-0.3c0.2,0,0.4,0,0.6,0.1
				c0.3,0.1,0.7,0.1,1,0c0.8-0.3,1.7-0.3,2.6-0.1c1,0.1,1.9,0.3,2.9,0.4c0.1,0,0.2,0,0.2,0c0.7-0.4,1.4,0.1,2.1-0.1
				c0.1,0,0.3,0,0.4,0c0.3,0.1,0.4,0.3,0.1,0.5c-0.7,0.7-1.5,1.4-2.2,2c-0.3,0.2-0.6,0.3-0.9,0.3c-1.6,0-3.2,0.1-4.9,0.1
				c-1.1,0-2.2-0.2-3.2-0.1c-0.9,0-1.8,0.2-2.7,0.3c-0.6,0-1.2,0-2,0c0.1-0.2,0.2-0.5,0.3-0.6c0.6-0.5,1.2-1,1.8-1.4
				c0.5-0.4,0.7-1,0.7-1.6c0-0.2,0.1-0.5,0.1-0.7c-0.1-1.4,0-2.7,0.1-4.1c0.1-1.8,0-3.5-0.3-5.2c0-0.1,0-0.2,0-0.3
				c0.1-0.3,0-0.7-0.4-0.8c-0.1,0-0.2,0-0.2,0c-0.1,0-0.2-0.1-0.3-0.2c-0.6-0.5-1.3-0.9-2-1.2c-0.1,0-0.2-0.1-0.3-0.1
				c0.2-0.2,0.4-0.4,0.6-0.6c0.4-0.4,0.8-0.8,1.3-1.1c0.6-0.5,1.4-0.5,2-0.1c0.8,0.4,1.6,0.7,2.4,1.1c0.2,0.1,0.3,0.3,0.3,0.5
				c0.1,0.9,0.2,1.8,0.2,2.8c0,0.5,0,0.9,0,1.4s0,0.8-0.1,1.1c0,1.4,0,2.7,0,4v2c0.9-0.1,1.6-0.9,1.6-1.8c0,0,0,0,0-0.1
				c0-0.1-0.1-0.1-0.1-0.2c0.4-1.4-0.3-2.7-0.3-4.1c0-0.7-0.1-1.4-0.1-2.1c0-0.2,0-0.4,0.2-0.6c0.6-0.6,1.3-1.1,1.9-1.7
				c0.3-0.3,0.6-0.6,1-0.9l2.2-2.1c0,0.5,0.5,1,1,1c0.4,0.1,0.8,0.3,1.1,0.5c0.2,0.1,0.3,0.3,0.3,0.5c0,0.1-0.2,0.2-0.3,0.3
				l-0.8,0.8c-0.1,0.1-0.3,0.3-0.4,0.4c-0.3,0.2-0.6,0.4-0.9,0.7c-0.2,0.2-0.5,0.2-0.6,0c-0.5-0.3-1-0.5-1.6-0.8
				c-0.1,0.9-0.1,1.8,0.1,2.8c0.1,0.4,0.1,0.8,0.2,1.2c0.1,0.8,0.1,1.5,0.2,2.3c0,0.3,0,0.6,0,0.9c0,0.2,0.1,0.5,0.2,0.7L95.7,48.4z
				"/>
			<path class="st0" d="M30.6,52.5c-0.3-0.4-0.5-0.1-0.7,0.2c-0.4,0.5-0.6,0.5-0.9-0.1c-0.2-0.3-0.3-0.7-0.4-1
				c-0.1-0.3-0.1-0.6-0.6-0.5c0.5-0.2,0.4-0.6,0.2-0.9c-0.4-1.1-0.7-2.2-1.1-3.3c-0.1-0.1-0.2-0.2-0.3-0.3c-0.2,0.1-0.3,0.3-0.5,0.4
				c-0.3,0.5-0.5,1-0.8,1.4c-0.1,0.2-0.3,0.4-0.4,0.5c-0.4,0-0.7,0-1.1-0.1c-0.4-0.1-0.8-0.5-0.9-0.9c0-0.2-0.1-0.3-0.1-0.4
				c-0.7,0.4-1.3,0.9-1.9,1.5l-0.2-0.2H21l0.1,0.7l-1.4,3.1c0.5,0.3,0.8,1.2,1.6,1c0.7,0.7,1.3-0.2,2-0.1c0.2,0.5-0.6,0.9,0,1.4
				c-0.3,0.2-0.4,0.6-0.9,0.7c-0.3,0.1-0.5,0.5-0.7,0.8c-0.2,0.2-0.4,0.4-0.7,0.6c-0.4,0.3-0.9,0.3-1.2,0c-0.8-0.6-1.6-1.2-2.5-1.6
				c-0.7-0.6-1.6-0.8-2.4-0.7c-0.6,0.2-1-0.3-0.8-0.9c0.2-0.6,0.5-1.1,0.8-1.6c0.2-0.2,0.4-0.3,0.6-0.4c0.6-0.1,1.1-0.1,1.7-0.1
				c0.4,0,0.7,0.1,1,0.3c0.3,0.2,0.5,0.1,0.6-0.2c0.3-1.1,0.6-2.2-0.3-3.3c-0.5-0.6-0.5-1.5-0.1-2.2c0.6-1.2,1.1-2.3,1.7-3.5l-2-0.2
				c-0.1,0-0.2,0-0.4,0c-1-0.3-1.9-0.9-2.7-1.6c-0.2-0.3-0.3-0.6-0.1-0.9c0.2-0.4,0.4-0.7,0.6-1.1c0.3-0.6,1-0.9,1.6-0.7
				c0.1,0.1,0.2,0.1,0.3,0.2c0.7,0.5,1.5,0.9,2.4,1.2c0.8,0.2,1.7,0.2,2.5-0.1c0.8-0.3,1.5-0.8,2.3-1.2l0,0c1.1-0.1,1.9-0.9,3-1.1
				c0.1,0.2,0.1,0.3,0.1,0.5c-0.2,1.4,0,2.8,0.6,4c1.1,2.3,2,4.7,2.7,7.2c0.2,0.5,0.4,1,0.6,1.4c0,0.1,0.1,0.3,0,0.4
				C31,51,30.9,51.8,30.6,52.5z M21.1,48.3h0.1c0.1-0.1,0.2-0.2,0.2-0.3c0.6-1.1,1.4-2.2,2.4-3c0.2-0.2,0.5-0.4,0.7-0.7
				s0.5-0.3,0.8,0.1c0.1,0.3,0.3,0.7,0.4,1c0.1,0.2,0.3,0.3,0.5,0.2c0.1,0,0.1-0.1,0.1-0.1c0.1-0.2,0.1-0.3,0-0.5
				c-0.1-0.2-0.2-0.4-0.3-0.6c-0.5-1.2-0.7-2.4-0.8-3.7c0-0.3-0.2-0.5-0.5-0.3c-1,0.4-2.1,0.9-3.1,1.4c-0.5,0.2-0.9,0.6-0.9,1.1
				c0,0.2-0.1,0.4-0.2,0.6c-0.5,0.8-0.4,1.8,0.3,2.4c0.4,0.4,0.5,0.9,0.4,1.4C21.2,47.6,21.2,47.9,21.1,48.3z"/>
			<path class="st0" d="M104,56.8c0.1-0.3,0.2-0.6,0.3-0.9c0.3-0.6,0.7-1.1,1.1-1.6c0.2-0.3,0.5-0.6,0.8-0.8
				c0.2-0.1,0.4-0.4,0.3-0.7c0-1.1-0.1-2.1-0.1-3.2c0-1.4-0.1-2.8-0.1-4.2c0-1.1,0-2.1,0-3.2c0-0.2,0-0.3,0-0.5
				c0-0.3-0.2-0.4-0.5-0.4c-0.2,0-0.4,0.1-0.7,0.1c-0.8,0.2-1.6,0.2-2.4-0.2c-0.3-0.1-0.4-0.4-0.2-0.6c0.6-0.8,1.1-1.6,1.8-2.3
				c0.4-0.4,1-0.5,1.5-0.4c0.8,0.1,1.5,0,2.2-0.2c0.5-0.1,1.1-0.2,1.6-0.2c0.3,0,0.6-0.1,0.9-0.1c0.7-0.2,1.4-0.2,2,0.1
				c0.2,0.1,0.4,0.5,0.3,0.6c-0.2,0.7-0.3,1.4-0.2,2.1c0,0.9,0,1.9,0.1,2.8c0.1,1.2,0.2,2.4,0.3,3.5c0,0.7-0.1,1.4-0.1,2.1
				c0,0.7-0.1,1.3-0.1,1.9c0,0.4,0.1,0.8,0.2,1.1c0,0,0,0.1,0,0.2c-0.3,0.4,0,0.7,0.1,0.9s0.4,0.1,0.6,0.1c0.2,0,0.5-0.1,0.7-0.1
				c-0.1,0.2-0.1,0.4-0.2,0.6c-0.3,0.5-0.6,0.9-0.9,1.3c-0.5,0.9-1.5,1.6-2.6,1.7c-0.3,0.1-0.6,0.1-0.8,0c-1.9-0.6-4-0.5-5.8,0.1
				C104.2,56.8,104.1,56.8,104,56.8z M109.6,41.3h-0.2c-0.1,0.4-0.2,0.7-0.2,1.1c0,2.1,0,4.1,0,6.2c0.1,0.7,0.1,1.3,0.1,2
				c-0.1,0.6,0,1.3,0.2,1.8c0.2,0.3,0.4,0.3,0.5,0c0.1-0.4,0.2-0.7,0.2-1.1c-0.1-2.7-0.2-5.4-0.4-8.1
				C109.8,42.6,109.7,41.9,109.6,41.3L109.6,41.3z"/>
			<path class="st0" d="M69.1,40.8c0.1,0.2,0.1,0.4,0.1,0.7c-0.5,2.5,0,5.1,1.4,7.2c0.4,0.6,1,1.1,1.7,1.4c-0.2-0.5-0.5-1.1-0.7-1.6
				c-0.1-0.2-0.2-0.5-0.3-0.8c-0.3-1.4-0.7-2.7-1.3-3.9c-0.2-0.3-0.1-0.6,0.1-0.9c0.4-0.5,0.7-1,1-1.5c0.2-0.4,0.7-0.5,1-0.3
				c0.1,0.1,0.2,0.2,0.3,0.3c0.7,0.8,1.1,1.8,1.3,2.8c0.2,0.9,0.5,1.7,0.9,2.5c0.6-1,1.3-2,2.1-2.9c0.1-0.1,0.3-0.1,0.4-0.1l2.6,0.3
				c0,0.1-0.1,0.2-0.1,0.4c-0.6,0.9-1.1,1.8-1.7,2.6c-0.1,0.1-0.3,0.2-0.5,0.2c-0.8,0-1.6,0-2.4,0l-2.4,3.2c1.3,0.8,2.4,2,3.9,2.4
				c0.5,0.1,1.1,0.2,1.6,0.2c0.8,0,1.7-0.2,2.5-0.3c0.7-0.1,1.2-0.6,1.2-1.3c0.1-1,0.9-1.6,1.5-2.4c0.2-0.2,0.4-0.4,0.6-0.6l0.1,0.1
				c-0.1,0.6-0.2,1.2-0.4,1.8c-0.4,1.1-1,2-1.8,2.8c-0.7,0.7-1.3,1.4-2,2.1c-0.5,0.6-1.2,0.9-2,1.1c-0.5,0-1,0.1-1.5,0.2
				c-1.2,0.2-2.5-0.1-3.4-0.9c-1.1-0.7-2.1-1.5-3.1-2.3c-1.8-1.3-2.9-3.3-3.1-5.5c-0.1-1-0.1-2,0-2.9C67.1,43.3,67.9,41.9,69.1,40.8
				z"/>
			<path class="st0" d="M2.4,52C2,50.7,2,49.2,2.5,47.9c0.2-0.6,0.3-1.3,0.3-2c0-1.6,0.1-3.2,0.2-4.8C3,40.4,3,40.4,2.3,40.4
				c-0.6,0-1.3-0.1-1.9-0.2c-0.5-0.1-0.6-0.2-0.3-0.6C0.6,39,1,38.4,1.4,37.9c0.3-0.3,0.8-0.5,1.2-0.4c0.7,0.1,1.3,0.1,2,0.1
				c0.5,0,0.7,0.1,0.6,0.7C5.1,39.2,5.1,40.1,5,41c0,0.1,0.1,0.3,0.1,0.4c0.1-0.1,0.3-0.1,0.4-0.3c0.8-1.2,1.8-2.3,3-3.2
				c1.1-0.9,0.9-0.8,1.7,0.1c1.2,1.3,2.1,2.8,2.5,4.6c0.2,1.3,0.1,2.7-0.3,4c-0.3,0.9-0.7,1.8-1,2.7c-0.1,0.3-0.3,0.6,0,1
				c0,0.1,0,0.2-0.1,0.4c-0.2,0.3-0.3,0.5-0.5,0.8s-0.3,0.4-0.4,0.5c-0.1,0.1-0.3,0.3-0.3,0.5C10,52.9,9.8,53,9.5,52.9
				c-0.7-0.3-1.5-0.5-2.2-0.8c-0.6-0.2-1.1-0.5-1.7-0.8c-0.2-0.1-0.4-0.2-0.5-0.1C5.1,51.3,5,51.5,5,51.6c0,0.2,0,0.5,0,0.7
				c-0.1,0.5,0.2,0.9,0.6,1.2c0.2,0.1,0.2,0.3,0.1,0.5c-0.5,0.7-1,1.4-1.4,2.1c-0.1,0.2-0.4,0.3-0.6,0.2c0,0,0,0-0.1,0
				c-1-0.4-2-0.8-2.9-1.3c-0.5-0.2-0.5-0.4-0.2-0.8s0.8-1,1.3-1.6C1.9,52.4,2.2,52.2,2.4,52z M4.9,46.8L4.9,46.8
				C5,47.1,5,47.4,5,47.7c0,0.3,0.1,0.4,0.4,0.3c0.2,0,0.5,0,0.7,0.1c1.1,0.4,2.2,0.9,3.4,1.3c0.5,0.2,0.6,0.2,0.8-0.4
				c0.1-0.4,0.2-0.9,0.2-1.3c0.3-1,0.2-2.1-0.1-3.1c-0.3-0.8-0.7-1.5-1.1-2.3c-0.4-0.6-0.8-1.2-1.3-1.8c-0.5-0.6-0.6-0.5-1.2,0
				c-0.4,0.4-0.9,0.9-1.3,1.3c-0.3,0.2-0.5,0.6-0.5,1.1C5,44.2,4.9,45.5,4.9,46.8z"/>
			<path class="st0" d="M122.8,54.2c-0.3-1.2-0.2-2.4,0.2-3.6c0.1-0.1,0.1-0.3,0.1-0.5c-0.2-0.5-0.2-1.1,0-1.7c0,0,0-0.1,0-0.1
				c-0.5-0.7,0.2-1.3,0.2-2c0-0.2,0-0.4-0.1-0.5c-0.2-0.3-0.3-0.6-0.1-0.9c0.4-0.8,1-1.5,1.7-2c0.2-0.1,0.4-0.2,0.5-0.2
				s0.2,0.4,0.2,0.5c0,1.6,0,3.1-0.1,4.7v0.2l0.2,0.1c0.1-0.2,0.2-0.3,0.2-0.4c0.3-0.4,0.6-0.7,0.9-1.1c0.5-0.7,1.2-1.1,2-1.1
				c0.8,0,0.8-0.1,0.9-0.9c0-0.4,0-0.7,0.1-1.1c0.1-0.5-0.2-1.1-0.7-1.3c-0.8-0.5-1.7-0.9-2.5-1.3c-0.2-0.1-0.4-0.1-0.6,0
				c-0.4,0.2-0.8,0.5-1.1,0.8c-1,0.9-2.3,1.2-3.6,1c-0.7,0-1.4-0.4-1.8-1.1c-0.1-0.2-0.1-0.4,0-0.5c0.4-0.6,0.9-1.2,1.4-1.8
				c0.3-0.4,0.8-0.4,1.2-0.1c0,0,0,0,0,0c1.3,0.9,2.9,0.9,4.3,0.1l0,0l1.9-1.7l0.6,0.3c1.1,0.6,2.1,1.2,3.1,1.9
				c0.7,0.4,0.7,0.4,0.5,1.2c-0.2,1.1-0.1,2.3,0.1,3.4c0,0.3,0,0.5,0.1,0.8c0,0.2,0.2,0.4,0.3,0.6c0.2,0.2,0.3,0.3,0.1,0.6
				c-0.2,0.4-0.3,0.9-0.2,1.4c0.2,1.5,0.3,3,0.4,4.5c0,0.2-0.1,0.4-0.3,0.6c-0.3,0.3-0.6,0.6-0.9,0.9c-0.2,0.2-0.4,0.3-0.5,0.4
				c-0.1,0.1-0.2,0.2-0.4,0.3l-0.5,0.5l-0.1-0.1l-0.1-0.6c-0.1-0.6-0.1-1.3-0.2-1.9c-0.1-0.9-0.1-1.9-0.1-2.8
				c-0.1-0.3-0.1-0.5-0.2-0.8c-0.1-0.4-0.4-0.1-0.6-0.2c-0.8,0-1.6-0.1-2.4-0.1h-1.6c-0.1,1.1-0.1,2.1-0.2,3.1
				c0,0.2-0.1,0.4-0.3,0.5c-0.5,0.3-0.8,0.7-1,1.2C123.5,54.1,123.1,54.3,122.8,54.2z"/>
			<path class="st0" d="M76.7,40.8h-3c-0.3,0-0.7-0.1-1-0.1c-0.5-0.1-0.6-0.5-0.3-0.9c0.5-0.7,1-1.4,1.6-2.1
				c0.1-0.1,0.3-0.2,0.4-0.2c1.1,0,2.2,0.1,3.3,0.1c0.2,0,0.4,0,0.6,0c0.7-0.1,1.5-0.1,2.2,0.2c0.4,0,0.6,0.4,0.6,0.7
				c0,0.1,0,0.2-0.1,0.3c-0.1,0.2-0.2,0.4-0.4,0.6c-0.2,0.4-0.5,0.7-0.8,1c-0.2,0.2-0.6,0.4-0.9,0.4C78.2,40.8,77.5,40.8,76.7,40.8
				L76.7,40.8z"/>
		</g>
	</g>
</g>
<g id="Layer_2">
	<g>
		<path class="st0" d="M73,28.2l-6.4-3.1l-6.4,3.1l-1.6-7l-6.4-3.1l4.4-5.6l-1.6-7h7.1L66.6,0L71,5.6h7.1l-1.6,7l4.5,5.6l-6.4,3.1
			L73,28.2z M60.9,22.3l0.7,3l2.7-1.3L60.9,22.3z M68.9,24l2.7,1.3l0.7-3L68.9,24z M60.3,19.8l6.3,3l6.3-3l1.6-6.8l-4.3-5.5h-7
			L58.7,13L60.3,19.8z M76,15l-0.8,3.7l2.7-1.3L76,15z M55.2,17.4l2.7,1.3L57.1,15L55.2,17.4z M57.5,7.6l0.7,3l2.4-3H57.5z
			 M72.6,7.6l2.4,3l0.7-3H72.6z M64.7,5.6h3.8l-1.9-2.4L64.7,5.6z"/>
	</g>
</g>
</svg>
