<svg xmlns="http://www.w3.org/2000/svg" viewBox="0 0 133.18 20.57"><defs><style>.cls-1{fill:#fff;}</style></defs><title>parheliaAsset 3</title><g id="Layer_2" data-name="Layer 2"><g id="Layer_1-2" data-name="Layer 1"><path class="cls-1" d="M48.72,16.54c.69-.71,1.31-1.38,2-2a.72.72,0,0,1,1.16,0,2.1,2.1,0,0,0,.35.16c0-1.44,0-2.8.12-4.15a11.12,11.12,0,0,0-.23-3A7.47,7.47,0,0,1,52,5.56a2.27,2.27,0,0,1,.35-.91c.25-.41.58-.77.84-1.16A12.79,12.79,0,0,1,56.06.71l.71-.56a.48.48,0,0,1,.78.11,2.4,2.4,0,0,0,1.1,1,2.39,2.39,0,0,1,.6.47A1,1,0,0,1,59.37,3c-.15.26-.28.55-.43.85-.3-.13-.58,0-.75.37a.72.72,0,0,1-.25.27l-1.06.69a1.12,1.12,0,0,1-.22-.31c-.18-.63-.71-.91-1.21-1.22-.29-.18-.41-.07-.4.25,0,.7.08,1.4.09,2.1,0,1.38,0,2.76,0,4.14,0,.4.07.79.11,1.22.09,0,.19,0,.22-.06.48-.57,1-1.14,1.42-1.72a2.37,2.37,0,0,1,.23-.3c.68-.62,1.38-1.22,2-1.85A1.26,1.26,0,0,1,61,7.26a5.15,5.15,0,0,1,2.27,3.11,14.39,14.39,0,0,1,.51,3.23,3.89,3.89,0,0,1-1,2.93,3.42,3.42,0,0,0-.94,1.55A3.63,3.63,0,0,1,59.53,20a1.51,1.51,0,0,1,0-.48,2.58,2.58,0,0,1,.4-.75,4.5,4.5,0,0,0,.93-1.85,3.34,3.34,0,0,0,.1-1c-.06-.65-.18-1.29-.28-1.93a5.94,5.94,0,0,0-2.41-4.08.45.45,0,0,0-.67,0c-.77.78-1.56,1.54-2.31,2.33a.83.83,0,0,0-.18.53c0,1.13-.06,2.25-.09,3.38a1.69,1.69,0,0,1-.63,1.35,14.4,14.4,0,0,0-1.7,1.79c-.4.46-.91.47-1.16-.09-.34-.75-1.15-.87-1.67-1.36,0,0-.35.15-.38.27a4,4,0,0,1-1.13,1.61.49.49,0,0,1-.24.15,2.82,2.82,0,0,1-2.32-.67,13.15,13.15,0,0,1-2.16-3.78,2.73,2.73,0,0,0-.37-.72,1.21,1.21,0,0,1-.05-1.49,23.68,23.68,0,0,0,1.45-3,5.55,5.55,0,0,0-.22-4.8A2.33,2.33,0,0,0,43,4.3a2.34,2.34,0,0,0-.84.07V7.11c0,.43,0,.86,0,1.29,0,1.36-.06,2.73-.19,4.09a14.42,14.42,0,0,0,.18,4,1.3,1.3,0,0,1-.42,1.27c-.62.6-1.14,1.3-1.73,1.93a1.86,1.86,0,0,1-.62.28s-.1,0-.14,0c-1.2.49-2.26-.11-3.35-.43a.57.57,0,0,1-.35-.41c0-.72,0-1.43,0-2.14,0-1.07.12-2.14,0-3.2-.2-2.51-.31-5-.27-7.53,0-.16,0-.32,0-.48,0-1-.39-1.36-1.45-1.28a4.77,4.77,0,0,1-1.13-.06c-.3,0-.45-.27-.22-.55.63-.78,1.24-1.57,1.91-2.32a1,1,0,0,1,.69-.15c.84.05,1.68.14,2.52.18.29,0,.42.11.42.38,0,.54,0,1.08,0,1.62s0,1,0,1.57c0,1,0,2,0,3l.09,6.68c0,.35,0,.7,0,1a.57.57,0,0,0,.51.64c.32.07.48,0,.53-.38A50.48,50.48,0,0,0,39.39,8c0-1-.26-2.08-.32-3.12a1.61,1.61,0,0,1,.32-1c.37-.5.93-.88,1.26-1.4A2.61,2.61,0,0,1,43.5,1.31a9.11,9.11,0,0,0,1.28,0,2.39,2.39,0,0,1,2.35,1.52,5.79,5.79,0,0,1,0,5.31c-.51,1-.89,2.12-1.31,3.2a.67.67,0,0,0,0,.5,20.52,20.52,0,0,0,2.38,4.27A3.28,3.28,0,0,0,48.72,16.54Z"/><path class="cls-1" d="M95.7,12a9.25,9.25,0,0,1-1.16,1.18,15.61,15.61,0,0,1-1.88,1.13c-.23.12-.42.39-.78.26-.09,0-.34.31-.47.52a4.46,4.46,0,0,1-.26.55L91,15.1l-2.54,1.23,0,.07c.7-.1,1.39-.21,2.09-.3a4.64,4.64,0,0,1,.64.07,2.33,2.33,0,0,0,1,0,5.07,5.07,0,0,1,2.59-.12c1,.1,1.94.27,2.91.41.07,0,.15,0,.19,0,.69-.44,1.44.1,2.14-.12a.82.82,0,0,1,.38,0c.3.08.37.27.14.48-.74.69-1.47,1.38-2.25,2a1.64,1.64,0,0,1-.94.26c-1.62.05-3.25.09-4.87.08-1.08,0-2.15-.16-3.22-.15-.91,0-1.81.21-2.72.28-.61,0-1.23,0-2,0,.11-.22.15-.48.3-.6.58-.51,1.19-1,1.81-1.44a1.59,1.59,0,0,0,.65-1.55c0-.23.12-.49.09-.73a26.58,26.58,0,0,1,.1-4.09,24.18,24.18,0,0,0-.26-5.24.93.93,0,0,1,0-.29.6.6,0,0,0-.6-.81.71.71,0,0,1-.34-.18,5.43,5.43,0,0,0-2-1.18A1.46,1.46,0,0,1,84,3.07c.22-.22.4-.43.61-.61.41-.39.83-.77,1.26-1.15a1.7,1.7,0,0,1,2-.14c.8.35,1.59.71,2.36,1.11a.75.75,0,0,1,.28.53q.15,1.38.24,2.76c0,.46,0,.92,0,1.38s0,.76-.05,1.14c0,1.35,0,2.7,0,4.05v2a1.7,1.7,0,0,0,1.58-1.86c0-.06-.08-.12-.06-.17.41-1.39-.31-2.7-.32-4.06,0-.69-.07-1.39-.06-2.09A1,1,0,0,1,92,5.33c.61-.58,1.27-1.11,1.9-1.67.33-.29.64-.61,1-.91L97.13.68a1.1,1.1,0,0,0,1,1,4.07,4.07,0,0,1,1.09.48.87.87,0,0,1,.32.49c0,.09-.19.23-.29.34l-.77.85a3,3,0,0,1-.4.4c-.3.23-.63.43-.92.67a.46.46,0,0,1-.63,0c-.48-.28-1-.51-1.63-.82A10.68,10.68,0,0,0,95,6.84a11.76,11.76,0,0,1,.15,1.21c.06.76.11,1.52.16,2.28,0,.32,0,.64,0,.95a5.69,5.69,0,0,0,.18.68Z"/><path class="cls-1" d="M30.64,16.13c-.34-.37-.48-.08-.66.15-.43.52-.61.5-.88-.13a7.28,7.28,0,0,1-.39-1c-.08-.31-.12-.59-.6-.53.47-.25.36-.58.25-.92-.36-1.1-.71-2.21-1.08-3.3a.59.59,0,0,0-.27-.26,1.69,1.69,0,0,0-.46.42c-.29.46-.53.95-.81,1.41-.12.18-.28.45-.44.46a3.08,3.08,0,0,1-1.08-.13,1.16,1.16,0,0,1-.86-.92,4.72,4.72,0,0,0-.15-.45,6.66,6.66,0,0,0-1.86,1.55l-.23-.25-.1,0,.07.7-1.36,3.09c.52.33.76,1.17,1.65,1,.68.71,1.28-.17,1.95-.09.22.48-.63.91,0,1.41-.31.21-.43.58-.88.68-.28.07-.46.51-.7.75a3.49,3.49,0,0,1-.7.57,1.07,1.07,0,0,1-1.25,0c-.81-.57-1.61-1.16-2.47-1.65a3.08,3.08,0,0,0-2.44-.7c-.63.17-1-.32-.8-.92a13.63,13.63,0,0,1,.77-1.64,1,1,0,0,1,.64-.37A9.75,9.75,0,0,1,17.18,15a2.29,2.29,0,0,1,1,.3c.32.18.5.1.58-.19.31-1.14.61-2.24-.31-3.33a2,2,0,0,1-.11-2.22c.57-1.16,1.15-2.3,1.74-3.47l-2-.18a1.5,1.5,0,0,1-.37,0A6.68,6.68,0,0,1,15,4.3a.77.77,0,0,1-.07-.93c.18-.37.37-.74.57-1.1a1.22,1.22,0,0,1,1.94-.44A7.32,7.32,0,0,0,19.82,3a3.93,3.93,0,0,0,2.49-.14c.79-.33,1.54-.78,2.31-1.18,0,0,0,0,0,0,1.08-.08,1.9-.88,3-1.07a1.73,1.73,0,0,1,.09.53,6.94,6.94,0,0,0,.63,4.05A50.77,50.77,0,0,1,31,12.37a10.58,10.58,0,0,0,.65,1.42c0,.11.06.34,0,.39C31,14.64,30.94,15.4,30.64,16.13Zm-9.5-4.24.11,0a2.37,2.37,0,0,0,.22-.33,9.69,9.69,0,0,1,2.37-3c.24-.22.46-.45.68-.68s.55-.34.75.14a9,9,0,0,0,.43,1,.39.39,0,0,0,.66.05.63.63,0,0,0,0-.51,5.24,5.24,0,0,0-.29-.64,11.53,11.53,0,0,1-.79-3.66c0-.35-.18-.47-.49-.33-1,.44-2.06.91-3.09,1.36a1.33,1.33,0,0,0-.91,1.15,1.88,1.88,0,0,1-.24.57,1.93,1.93,0,0,0,.31,2.44,1.4,1.4,0,0,1,.38,1.36C21.21,11.18,21.19,11.54,21.14,11.89Z"/><path class="cls-1" d="M104,20.44a4.63,4.63,0,0,1,.33-.9,19,19,0,0,1,1.08-1.62,3.17,3.17,0,0,1,.81-.78.62.62,0,0,0,.34-.65c0-1.06-.1-2.11-.13-3.17,0-1.39-.08-2.78-.1-4.17,0-1.06,0-2.13,0-3.2a3.83,3.83,0,0,0,0-.47c0-.31-.19-.42-.48-.36a4.4,4.4,0,0,0-.65.14,3.4,3.4,0,0,1-2.37-.19c-.29-.11-.42-.36-.23-.61.57-.78,1.14-1.56,1.78-2.3a1.63,1.63,0,0,1,1.51-.37,4.52,4.52,0,0,0,2.24-.23,6.11,6.11,0,0,1,1.62-.16,7.18,7.18,0,0,0,.93-.13,2.71,2.71,0,0,1,2,.14c.17.1.38.46.32.58a4.71,4.71,0,0,0-.17,2.07c0,.94,0,1.87.08,2.81.08,1.18.23,2.37.29,3.55,0,.68-.07,1.36-.1,2.05s-.08,1.29-.06,1.93a7.57,7.57,0,0,0,.2,1.14c0,.05,0,.13,0,.16-.33.36,0,.67.13.94s.41.11.63.12a5.38,5.38,0,0,0,.69-.1,3.34,3.34,0,0,1-.22.64c-.28.45-.58.88-.87,1.32a3.46,3.46,0,0,1-2.56,1.7,2.42,2.42,0,0,1-.85,0,9.43,9.43,0,0,0-5.85.11A1.9,1.9,0,0,1,104,20.44Zm5.62-15.53h-.24a7.19,7.19,0,0,0-.2,1.11c0,2.06,0,4.13,0,6.19a9.58,9.58,0,0,1,.08,2,3,3,0,0,0,.25,1.83c.15.34.39.35.52,0a2.72,2.72,0,0,0,.16-1.1q-.17-4-.38-8.09C109.85,6.18,109.73,5.55,109.65,4.91Z"/><path class="cls-1" d="M69.12,4.46a1.79,1.79,0,0,1,.13.65,9.42,9.42,0,0,0,1.37,7.16A4.11,4.11,0,0,0,72.3,13.7c-.25-.55-.5-1.09-.74-1.63a3.71,3.71,0,0,1-.29-.76A17.89,17.89,0,0,0,69.93,7.4.8.8,0,0,1,70,6.51c.36-.49.69-1,1-1.48a.77.77,0,0,1,1.34,0,6.59,6.59,0,0,1,1.32,2.8,14.12,14.12,0,0,0,.87,2.54,21.3,21.3,0,0,1,2.08-2.87A.36.36,0,0,1,77,7.4l2.58.33a1.37,1.37,0,0,1-.1.35c-.55.88-1.09,1.76-1.67,2.61a.66.66,0,0,1-.46.25c-.81,0-1.62,0-2.4,0L72.59,14.1c1.31.8,2.36,2,3.88,2.4a5.11,5.11,0,0,0,1.59.2,15,15,0,0,0,2.5-.34,1.42,1.42,0,0,0,1.23-1.27c.14-1,.92-1.61,1.46-2.37a5.89,5.89,0,0,1,.59-.64l.14.07a10.09,10.09,0,0,1-.36,1.77,7.94,7.94,0,0,1-1.76,2.81c-.68.68-1.29,1.44-2,2.08a3.45,3.45,0,0,1-2,1.05,11.82,11.82,0,0,0-1.47.2,4.28,4.28,0,0,1-3.45-.9,36.51,36.51,0,0,1-3.12-2.27,7.66,7.66,0,0,1-3.05-5.51,11.59,11.59,0,0,1,0-2.94A7.24,7.24,0,0,1,69.12,4.46Z"/><path class="cls-1" d="M2.43,15.63a6,6,0,0,1,.07-4.15,5.66,5.66,0,0,0,.26-2c0-1.62.1-3.24.18-4.85C3,4,3,4,2.33,4A14.94,14.94,0,0,1,.44,3.79c-.5-.09-.55-.25-.27-.64.4-.55.81-1.1,1.25-1.63a1.18,1.18,0,0,1,1.2-.37,18.67,18.67,0,0,0,2,.1c.54,0,.65.13.61.66-.08.92-.17,1.84-.24,2.76a1.39,1.39,0,0,0,.12.43c.14-.09.32-.14.4-.26a13.86,13.86,0,0,1,3-3.18c1.13-.94.93-.79,1.72.09a9.47,9.47,0,0,1,2.51,4.57,8.42,8.42,0,0,1-.31,4c-.28.91-.66,1.78-1,2.67-.11.32-.31.64,0,1,0,.05,0,.25-.09.36-.16.27-.34.53-.52.79s-.29.36-.43.55a1.51,1.51,0,0,0-.33.49c-.07.37-.25.4-.54.3-.73-.26-1.48-.48-2.2-.78-.56-.23-1.09-.55-1.65-.81-.15-.07-.37-.17-.47-.1a.73.73,0,0,0-.23.47A5.79,5.79,0,0,0,5,16a1.16,1.16,0,0,0,.58,1.16c.24.12.25.3.1.51-.48.69-1,1.37-1.43,2.07a.47.47,0,0,1-.69.16c-1-.43-1.95-.84-2.92-1.26-.48-.2-.54-.4-.22-.8s.82-1,1.26-1.56A8.51,8.51,0,0,1,2.43,15.63Zm2.51-5.22H5c0,.32,0,.64,0,.95s.09.39.41.33a1.53,1.53,0,0,1,.73.08c1.13.42,2.25.86,3.37,1.29.51.2.64.16.78-.38a9.73,9.73,0,0,0,.24-1.31,5.86,5.86,0,0,0-.07-3.11A21.27,21.27,0,0,0,9.31,6,12.08,12.08,0,0,0,8,4.23c-.53-.58-.64-.53-1.23,0A17,17,0,0,1,5.45,5.49a1.25,1.25,0,0,0-.52,1.06C5,7.84,4.94,9.12,4.94,10.41Z"/><path class="cls-1" d="M122.76,17.84a6.92,6.92,0,0,1,.16-3.56.75.75,0,0,0,.06-.46,2.08,2.08,0,0,1,0-1.66.09.09,0,0,0,0-.1c-.5-.71.21-1.31.18-2a.92.92,0,0,0-.13-.52c-.21-.28-.33-.58-.11-.87a6.51,6.51,0,0,1,1.69-2c.17-.1.44-.23.54-.16s.2.36.2.55c0,1.56,0,3.12-.06,4.69V12l.17.13a3.14,3.14,0,0,1,.25-.44c.29-.38.61-.74.89-1.12a2.61,2.61,0,0,1,2-1.13c.84,0,.83-.09.88-.94a4.44,4.44,0,0,1,.11-1.09,1.09,1.09,0,0,0-.69-1.31c-.83-.47-1.68-.9-2.54-1.32a.75.75,0,0,0-.57,0,5.23,5.23,0,0,0-1.11.8,4.21,4.21,0,0,1-3.55,1,2.11,2.11,0,0,1-1.79-1.08.63.63,0,0,1,0-.55,21.41,21.41,0,0,1,1.37-1.77.85.85,0,0,1,1.2-.11,3.93,3.93,0,0,0,4.27.12l0,0,1.89-1.65.55.33c1.05.62,2.11,1.23,3.15,1.88.67.41.66.43.48,1.19a8.51,8.51,0,0,0,.12,3.37,7.25,7.25,0,0,0,.09.8,1.14,1.14,0,0,0,.31.57c.19.18.29.33.11.56a1.85,1.85,0,0,0-.18,1.42c.17,1.49.31,3,.43,4.46a1,1,0,0,1-.3.59,11.9,11.9,0,0,1-.86.88c-.16.16-.36.27-.54.42a3.85,3.85,0,0,0-.35.35l-.48.48-.14-.05-.06-.62c-.06-.63-.13-1.26-.17-1.89-.05-.93-.06-1.86-.12-2.79a4.5,4.5,0,0,0-.23-.77c-.12-.45-.42-.15-.65-.16-.81,0-1.62-.08-2.43-.1h-1.63c-.07,1.08-.12,2.11-.22,3.15a.88.88,0,0,1-.31.54,2.42,2.42,0,0,0-1,1.21A.82.82,0,0,1,122.76,17.84Z"/><path class="cls-1" d="M76.72,4.45h-3a4.49,4.49,0,0,1-1-.14c-.52-.14-.63-.5-.3-.93C72.91,2.68,73.45,2,74,1.32a.68.68,0,0,1,.44-.21c1.09,0,2.18.06,3.27.08a3.2,3.2,0,0,0,.62,0,4.41,4.41,0,0,1,2.16.19.66.66,0,0,1,.48,1,3.15,3.15,0,0,1-.36.61,5.14,5.14,0,0,1-.76,1,1.51,1.51,0,0,1-.89.4c-.75.06-1.5,0-2.24,0Z"/></g></g></svg>