<svg xmlns="http://www.w3.org/2000/svg" viewBox="0 0 141.78 21.77"><defs><style>.cls-1{fill:#fff;}</style></defs><title>septagramAsset 1</title><g id="Layer_2" data-name="Layer 2"><g id="Layer_1-2" data-name="Layer 1"><path class="cls-1" d="M0,0V21.73H141.78s0,0,0,0a1,1,0,0,1-.17,0H0V.2A1.42,1.42,0,0,1,0,0Z"/><path class="cls-1" d="M7.55,5.64A11.61,11.61,0,0,0,7.56,7a14.37,14.37,0,0,1,0,1.61c0,.22.18.31.35.38a5.11,5.11,0,0,0,2,.33,20.41,20.41,0,0,0,2.59-.35,4.26,4.26,0,0,1,2.29.15,2.9,2.9,0,0,1,1.43,1.29l.41.73a4.06,4.06,0,0,1,.28,3,10.22,10.22,0,0,1-1.59,3.14,2.73,2.73,0,0,1-.49.53c-.28.26-.58.5-.85.77s-.42.42-.76.35c-.06,0-.13,0-.19.05-.5.23-1,.47-1.51.72a.93.93,0,0,1-.83.06c-.17-.08-.41,0-.56-.16a4.36,4.36,0,0,1-.78-.64c-.42-.45-.82-.91-1.2-1.39-.22-.28-.38-.61-.59-.9a2,2,0,0,0-1-.71c-.4-.12-.77-.33-1.16-.47a2.15,2.15,0,0,0-1.2-.18c-.26.05-.32.18-.19.41s.3.58.46.85a.71.71,0,0,1,0,.85,9.73,9.73,0,0,1-1.64,1.81c-.26.2-.3.2-.48-.07L2,18.87a1.91,1.91,0,0,1-.45-1.43,3.76,3.76,0,0,0,0-.58,1.52,1.52,0,0,1,.36-1.06,10.7,10.7,0,0,1,1.78-2,11.31,11.31,0,0,1,1-.77,1.41,1.41,0,0,1,.54-.16l1.17-.16a.41.41,0,0,1,.19,0c.26.09.28-.07.27-.25,0-.67.07-.62-.56-.81a5,5,0,0,1-2-1.31,6.63,6.63,0,0,1-.86-1A5.19,5.19,0,0,1,3,8.35.2.2,0,0,1,3,8.2c.22-.58.45-1.16.68-1.74a.58.58,0,0,1,.17-.23,4,4,0,0,0,.77-.88A3,3,0,0,1,5.08,5a1.8,1.8,0,0,0,.29-.26c.33-.45.62-.94,1-1.36A14.66,14.66,0,0,1,7.59,2.26a2.86,2.86,0,0,1,1-.46,3.33,3.33,0,0,1,3.25.64c.78.61,1.49,1.3,2.22,2,.44.4.67.4,1.05-.06.21-.24.45-.47.68-.69s.32-.14.46.06l.28.36a.32.32,0,0,1,0,.49,36.68,36.68,0,0,1-3,3,3.58,3.58,0,0,1-.45.31c-.2.1-.32,0-.35-.18a.36.36,0,0,0-.29-.31,1.08,1.08,0,0,1-.42-.23c-.62-.57-1.21-1.15-1.83-1.7a4,4,0,0,0-2.3-1.19c-.32,0-.36,0-.36.34v1Zm.57,6.18v-.07a1.23,1.23,0,0,0-.41.12c-.22.2-.18.92.16,1.05a4.86,4.86,0,0,0,1.24.4c.12,0,.24.13.35.21s.17.18.26.24.3.12.45.19a5.64,5.64,0,0,1,2,1.39.94.94,0,0,0,.29.2c.24.13.5.24.74.39a1.86,1.86,0,0,0,.94.27.22.22,0,0,0,.25-.2,3.84,3.84,0,0,0,.07-1.55A4.09,4.09,0,0,0,13,11.93a2.68,2.68,0,0,0-2.26-.57l-1.11.21ZM6.83,8.14c0-.15.06-.24.07-.32L7,4.5a.22.22,0,0,0-.08-.15c-.27,0-.86.18-.94.54s-.23,1-.31,1.51a.69.69,0,0,0,.14.47c.21.3.45.58.69.86Z"/><path class="cls-1" d="M114.43,12.72c-.18-.07-.3-.14-.42-.17a4.61,4.61,0,0,0-1.85.06.69.69,0,0,0-.38.24,8.6,8.6,0,0,0-.67.8,1,1,0,0,0-.16.42,1.3,1.3,0,0,1-.68,1.06.78.78,0,0,0-.32.33,1.57,1.57,0,0,1-.94.86,3.43,3.43,0,0,0-.7.52,3.61,3.61,0,0,0-.3.25L108,17c.15-.2.31-.4.44-.61a8.68,8.68,0,0,0,.56-.92,22.18,22.18,0,0,1,1.5-2.75,11.49,11.49,0,0,0,.81-1.51L112,9.8c.08-.17.19-.33.26-.51a6.66,6.66,0,0,1,.91-1.73,1.06,1.06,0,0,0,.18-.33,2.07,2.07,0,0,1,.51-.79c.31-.37.6-.75.94-1.18a2,2,0,0,0-.5-.13,2.34,2.34,0,0,0-1.26.46,2.23,2.23,0,0,1-.73.23l-.06-.08a1.38,1.38,0,0,1,.14-.27c.29-.37.61-.72.87-1.11a3.85,3.85,0,0,1,1.17-1A6.72,6.72,0,0,1,116,2.52a1.56,1.56,0,0,1,1,0,5.62,5.62,0,0,1,1.71.77.83.83,0,0,1,.15.11,3.4,3.4,0,0,1,1,2.49,3.06,3.06,0,0,1-.13.6,2,2,0,0,0-.07,1.09,5.31,5.31,0,0,1,0,2.21c-.1.54-.09,1.09-.14,1.63s-.12,1.09-.2,1.63a3.67,3.67,0,0,0,.09,1.51c.07.24.28.35.47.47a1.19,1.19,0,0,1,.5.47c.08.14.32.2.5.28,0,0,.1,0,.13-.09l.29-.36a2.42,2.42,0,0,1,1.34-.92,2.25,2.25,0,0,1,.64-.06c.16,0,.33,0,.5,0s.32-.06.3-.3c0-.41-.12-.81-.15-1.23s0-.57,0-.85a3,3,0,0,0,0-.42c0-.13,0-.26,0-.39,0-.66,0-1.32-.1-2-.09-.87-.22-1.72-.35-2.58,0-.27-.14-.34-.4-.39a7,7,0,0,0-1.89.13.33.33,0,0,1-.14,0c-.17,0-.22-.1-.12-.24s.36-.5.55-.75.49-.66.75-1a.56.56,0,0,1,.21-.16c.4-.19.81-.39,1.23-.57a1.9,1.9,0,0,1,.65-.17,6.57,6.57,0,0,1,1,.05c.38,0,.46.13.53.49s.19.56.26.85a4.49,4.49,0,0,1,.06.73c0,.25,0,.49,0,.73A8.88,8.88,0,0,0,126.22,8a12.61,12.61,0,0,1,0,1.74,6.21,6.21,0,0,0,.09,1.22,1.83,1.83,0,0,1-.49,1.87c-.26.25-.48.54-.72.81a.52.52,0,0,1-.17.13.66.66,0,0,0-.48.5.31.31,0,0,0,0,.27c.55.54,1.1,1.08,1.68,1.6a1.73,1.73,0,0,0,.56.28.53.53,0,0,1,.29.94,5.15,5.15,0,0,0-.58,1,3,3,0,0,1-.45.5c-.2.2-.41.38-.61.57s-.2.1-.32,0-.3-.2-.44-.3a6.55,6.55,0,0,1-.81-.57c-.36-.34-.67-.72-1-1l-1.26.68a.32.32,0,0,0-.16.14,1.55,1.55,0,0,1-1,.83,2.39,2.39,0,0,1-1.8,0c-.29-.09-.58-.18-.87-.24a1.17,1.17,0,0,1-1-1.16,1.49,1.49,0,0,0-.15-.4,1.74,1.74,0,0,1-.14-.48,13.36,13.36,0,0,1,.22-2.6s0-.08,0-.11a1.74,1.74,0,0,0,.17-1.1c0-.41.16-.81.17-1.22a2.16,2.16,0,0,0-.18-.77c-.06-.16-.18-.07-.27,0l-2.09,1.59Zm-1.55-2.24.06,0a1.14,1.14,0,0,0,.22-.12c.2-.15.38-.31.58-.45A2.38,2.38,0,0,1,115,9.53a15.84,15.84,0,0,0,1.67-.2A.38.38,0,0,0,117,9a2.8,2.8,0,0,0,0-1.49,4,4,0,0,0-1.16-1.75c-.15-.14-.25-.12-.35,0-.41.64-.82,1.28-1.22,1.92-.18.3-.37.59-.53.9-.25.48-.48,1-.72,1.46A2.59,2.59,0,0,0,112.88,10.48Z"/><path class="cls-1" d="M99.93,11.54c-.2-.18-.21-.22,0-.47a7.66,7.66,0,0,0,.79-1.24,2.32,2.32,0,0,1,1.77-1.36,3.63,3.63,0,0,0,.58-.16c-.1-.14-.09-.23.06-.31s.11-.16.12-.25A3.1,3.1,0,0,0,102.8,6c-.06-.12-.11-.25-.18-.36a.93.93,0,0,0-.78-.51c-.6,0-1.21,0-1.81,0a1,1,0,0,0-.74.34.77.77,0,0,1-.36.18c-.15,0-.13.14-.12.23,0,.41.09.81.09,1.22,0,.69,0,1.38-.08,2.07A6.62,6.62,0,0,0,99,11.54c.06.24.09.49.16.73a1.23,1.23,0,0,1,.07.76c0,.11.06.28.12.41a.53.53,0,0,1,0,.43c-.07.24-.24.32-.41.45a3.73,3.73,0,0,0-.52.53,1,1,0,0,0-.11.17c-.23.28-.25.32,0,.54a5.88,5.88,0,0,0,.87.52,1.12,1.12,0,0,0,1-.08,9.12,9.12,0,0,0,.83-.41l.29-.13L101,16.58c-.33,0-.44.17-.55.42a4.25,4.25,0,0,1-1.17,1.52,2.53,2.53,0,0,1-1.45.59,1.21,1.21,0,0,1-.59-.13,8.08,8.08,0,0,1-1.1-.64c-.6-.38-1-.93-1.63-1.31a2.14,2.14,0,0,0-1.09-.44c-.39,0-.43-.14-.23-.48l.4-.66c.24-.42.45-.86.72-1.26a1,1,0,0,1,1.5-.36l.79.39.22.07c-.1-.28-.18-.54-.28-.79a2.36,2.36,0,0,1-.06-1.29,11.29,11.29,0,0,0,.15-2.53c0-.16,0-.31-.06-.46l0-1c0-.4-.05-.79-.08-1.19s-.09-.56-.13-.85a3.82,3.82,0,0,1,0-.68c0-.19,0-.26-.24-.23s-.1,0-.13,0c-.47-.27-1-.09-1.45-.12-.25,0-.49,0-.74,0s-.29-.09-.2-.31l.22-.41c.15-.29.31-.58.45-.88a3,3,0,0,1,1-1.12.55.55,0,0,1,.29-.08c.58,0,1.17-.09,1.75-.07a6.06,6.06,0,0,1,1.1.2.26.26,0,0,1,.13.17c.1.55.19,1.09.26,1.64,0,.14,0,.29,0,.43a1.84,1.84,0,0,0,.14.44c.46-.63.94-1.22,1.34-1.86a2.37,2.37,0,0,1,1.86-1.15,4.08,4.08,0,0,1,2,.11,1.23,1.23,0,0,1,.72.64l.6,1.23a2.05,2.05,0,0,1,.07,1.2,4.48,4.48,0,0,1-.58,1.42,12.06,12.06,0,0,1-1.18,1.65.45.45,0,0,0,0,.58,10.46,10.46,0,0,1,.71,1.37c.29.78.48,1.61.75,2.4a8.41,8.41,0,0,0,.56,1.39,1.18,1.18,0,0,0,1.92.13,8.27,8.27,0,0,1,.55-.63c.18-.19.35-.14.44.09a.55.55,0,0,1-.1.57c-.34.42-.63.89-.93,1.34l0,.06c-.2.25-.39.52-.61.76a12.54,12.54,0,0,1-1,1,.86.86,0,0,1-.39.17c-.24.06-.49.09-.74.13a.5.5,0,0,1-.21,0,1.9,1.9,0,0,1-1.25-1,6.67,6.67,0,0,1-.34-.88c-.16-.46-.32-.93-.47-1.4,0,0,0,0,0-.08a10.88,10.88,0,0,0-.58-1.75,1.71,1.71,0,0,0-1.53-1.21A2.69,2.69,0,0,0,99.93,11.54Z"/><path class="cls-1" d="M80.3,8.24l.54-.79,1-1.48a.8.8,0,0,1,.21-.2.26.26,0,0,1,.42.11c.08.15.13.33.21.49a28.31,28.31,0,0,1,1.44,4.12,2.51,2.51,0,0,0,.31.61.85.85,0,0,1,.18.55c0,.1,0,.2,0,.3a1.57,1.57,0,0,1-.27,1.11c-.44.58-.84,1.18-1.25,1.78-.17.24-.16.4.11.54a9.76,9.76,0,0,0,1.23.57,7.74,7.74,0,0,0,1.81.56c.2,0,.35,0,.43-.19,0,0,.06-.06.11-.11a1,1,0,0,1,.13.2c.06.19.17.22.33.15.31-.13.63-.27.94-.42a.25.25,0,0,0,.14-.2.58.58,0,0,1,.2-.45,5.55,5.55,0,0,1,.42-.42.7.7,0,0,1,.33-.17A.76.76,0,0,0,90,13.83a1.06,1.06,0,0,1,0-.56,1.43,1.43,0,0,0-.33-1.43,3.38,3.38,0,0,0-1.59-.95c-.43-.11-.56-.44-.3-.79.46-.64.94-1.27,1.42-1.9A.68.68,0,0,1,90,8a3.53,3.53,0,0,1,2,1.28,1.07,1.07,0,0,1,.25.8,2.06,2.06,0,0,0,.2,1.12,1.26,1.26,0,0,1,0,.28c.07.34.15.68.22,1a3,3,0,0,1-.33,2.38c-.23.35-.49.69-.73,1-.08.11-.17.21-.09.36s0,.09-.06.12l-.37.31a1.34,1.34,0,0,0-.27.26,4.79,4.79,0,0,1-2.25,1.67c-.41.15-.81.35-1.22.52a2.27,2.27,0,0,1-.25.06,10,10,0,0,1-1.09.21,9.46,9.46,0,0,1-1.41,0,8.51,8.51,0,0,1-2.53-.66,4.81,4.81,0,0,1-.92-.56,4.4,4.4,0,0,1-1.31-1.37c-.43-.83-1-1.6-1.48-2.4a2,2,0,0,1-.23-.5,6.24,6.24,0,0,1-.29-2.81,3.62,3.62,0,0,1,.13-.47c.33-1,.64-1.94,1-2.9a10,10,0,0,1,1.89-3c.12-.13.25-.15.36,0a.33.33,0,0,1,.06.32c-.3.72-.62,1.44-.92,2.17a5.6,5.6,0,0,0-.21.83.53.53,0,0,0,0,.2Zm0,.4-.09,0c0,.35-.06.71,0,1.07s.07.73.12,1.09a1,1,0,0,0,.1.29,3.59,3.59,0,0,1,.21.38,17.74,17.74,0,0,0,1.64,2.79c0,.06.13.08.2.12a.89.89,0,0,0,0-.23c-.15-.39-.33-.78-.46-1.17a22.57,22.57,0,0,0-1.31-3.67c-.1-.18-.18-.37-.27-.56C80.32,8.73,80.28,8.69,80.25,8.64Z"/><path class="cls-1" d="M76.47,19.54c-.5-.2-1-.38-1.43-.58-.17-.08-.28-.1-.39.07a2.17,2.17,0,0,1-.34.32c0-.37-.09-.68-.12-1s-.06-.78-.07-1.17a1.51,1.51,0,0,1,.07-.56,4,4,0,0,0,.27-1.24c0-.28.05-.56.08-.84.06-.49-.12-.71-.62-.72a5.4,5.4,0,0,0-.8.07.59.59,0,0,1-.58-.2.5.5,0,0,0-.51-.21,4.69,4.69,0,0,1-1.63,0c-.49,0-1,0-1.48,0l-.24-.06a.91.91,0,0,1,.07-.25c.13-.2.28-.39.42-.59a3.37,3.37,0,0,0,.19-.32,1.47,1.47,0,0,1,.92-.74c.65-.2,1.31-.36,2-.51.4-.09.5-.16.54-.57.06-.69.1-1.38.16-2.07,0-.42.1-.84.11-1.26A4.66,4.66,0,0,0,73,5.88c-.13-.58-.52-.65-1-.28-.07.05-.11.15-.18.19a.44.44,0,0,1-.27.07c-.26,0-.51-.08-.76-.08-.59,0-1.18,0-1.77.07a.67.67,0,0,0-.2,0c-.63.27-1.19-.07-1.75-.25A5.3,5.3,0,0,1,66,5a.27.27,0,0,0-.4,0,3,3,0,0,1-.32.28c.56.46,1.1.92,1.66,1.37a1.43,1.43,0,0,0,.37.19A.86.86,0,0,1,67.9,8a14,14,0,0,0-.23,2.82.59.59,0,0,0,0,.23,2.07,2.07,0,0,1,0,1.45.51.51,0,0,1-.23.23.28.28,0,0,0-.19.23.73.73,0,0,1-.23.37c-.42.4-.86.78-1.28,1.18a.51.51,0,0,0-.15.35c0,1.11.07,2.21.1,3.33a.83.83,0,0,0-.57.35,2.77,2.77,0,0,1-.47.32l-.82.55a2.38,2.38,0,0,1-.33.12V18.24c0-.16,0-.32,0-.48,0-.31,0-.63-.07-.94s-.09-.5-.11-.74a.45.45,0,0,1,.06-.28c.19-.25.42-.48.59-.74s.31-.56.47-.85a1.22,1.22,0,0,1,.18-.34A1.76,1.76,0,0,0,65,12.43c0-.41,0-.83,0-1.24,0-.16,0-.33,0-.5a7,7,0,0,1,.06-.92c0-.35,0-.5-.28-.69l-1.43-1a.72.72,0,0,1-.24-.9,5.91,5.91,0,0,1,1.75-2.09,2.34,2.34,0,0,0,.49-.59,8.1,8.1,0,0,1,1.7-1.9.38.38,0,0,1,.51,0c.34.21.68.42,1,.65a1.52,1.52,0,0,0,.79.24.58.58,0,0,1,.3.06,1,1,0,0,0,.71.17,28.73,28.73,0,0,0,3.82-.38.53.53,0,0,1,.66.3,2,2,0,0,1,.29,1.05,6.88,6.88,0,0,1-.24,2.12.3.3,0,0,0,0,.13,12.21,12.21,0,0,1-.11,2.18c0,.49,0,1,0,1.48,0,.32,0,.34.37.3a.67.67,0,0,1,.37.05,2.44,2.44,0,0,1,1.41,2.35c0,.26-.12.52-.14.78-.07.7-.13,1.4-.15,2.09a1,1,0,0,0,.5.82,6.13,6.13,0,0,1,.68.56c.16.15.13.29,0,.42s-.28.14-.41.23a.94.94,0,0,0-.29.27C76.86,18.81,76.69,19.16,76.47,19.54Z"/><path class="cls-1" d="M55.62,18.7l.05-.17H55.6c-.3,0-.59,0-.88-.06s-.46-.1-.69-.12a2,2,0,0,1-.82-.24c-.59-.28-1.19-.54-1.77-.85a2.71,2.71,0,0,1-1.1-1,7.4,7.4,0,0,0-.53-.72,3.41,3.41,0,0,1-.62-1.7c-.1-.66-.21-1.33-.32-2a5.43,5.43,0,0,1,.44-3c.16-.36.31-.73.47-1.09a2.5,2.5,0,0,1,1.14-1.41L51,6.3l0-.1L50.28,6a4.65,4.65,0,0,0-2.4-.07c-.23,0-.39-.09-.57-.23.18-.57.35-1.15.54-1.72a1.66,1.66,0,0,1,.31-.51.63.63,0,0,1,.34-.22,13.15,13.15,0,0,1,1.76-.13c.72,0,1.44.13,2.15.22a6.43,6.43,0,0,0,1.64,0,9.12,9.12,0,0,1,1.05,0c.42,0,.84,0,1.26,0,.7,0,1.41,0,2.1,0A12.31,12.31,0,0,0,60,3a2.3,2.3,0,0,1,.28-.06c.24,0,.33.08.24.31s-.13.25-.19.37a1.66,1.66,0,0,0-.12.31,9.72,9.72,0,0,1-.69,1.89.52.52,0,0,1-.12.19A1.74,1.74,0,0,0,59,5.84c-.14,0-.26.14-.36.2A2.69,2.69,0,0,0,58,6a7.41,7.41,0,0,1-1.63,0,15.06,15.06,0,0,0-1.9,0C54,6,53.5,6,53,6c-.16,0-.4,0-.45.15s.06.32.21.44a2.62,2.62,0,0,1,.7,1.19c.34.89.66,1.79,1,2.68a2,2,0,0,0,.24.49,7,7,0,0,1,.79,1.84.6.6,0,0,1-.15.58l-.74.9c-.09.11-.17.18-.32.14s-.14,0-.19.08-.22.27-.32.41a.2.2,0,0,0,0,.18,1.34,1.34,0,0,0,.31.17c.64.19,1.28.39,1.93.55a2.48,2.48,0,0,0,.77,0A9.79,9.79,0,0,0,60,14.92a2,2,0,0,0,.75-.72l1.32-1.83s.11-.07.16-.11a.69.69,0,0,1,0,.2,2.87,2.87,0,0,0-.19.83,1,1,0,0,1-.17.49c-.52.93-1,1.86-1.57,2.77a2.08,2.08,0,0,1-1,.95.31.31,0,0,0-.15.15.43.43,0,0,1-.4.29,6.34,6.34,0,0,0-1.66.43A4.71,4.71,0,0,1,55.62,18.7ZM50.34,8.36c0,.12-.06.25-.07.38a1.8,1.8,0,0,0,0,.4c0,.61,0,1.22.11,1.82a7.62,7.62,0,0,0,.33,1.31A2.58,2.58,0,0,0,51,13c.29.4.6.78.92,1.15a2.19,2.19,0,0,0,1.27.73A6.86,6.86,0,0,0,53,14c-.26-.63-.57-1.24-.82-1.87a10.21,10.21,0,0,1-.46-1.35,10.57,10.57,0,0,0-.79-1.88C50.8,8.68,50.71,8.41,50.34,8.36Z"/><path class="cls-1" d="M24.24,10.78a.2.2,0,0,0,0-.13c-.11-.29.09-.45.27-.63a5.32,5.32,0,0,0,.37-.46c.34-.46.67-.92,1-1.36a.38.38,0,0,1,.33-.11c.63.07,1.27.16,1.9.25.29,0,.35.15.19.4L26.9,11a.38.38,0,0,1-.49.2,1.44,1.44,0,0,0-.62,0,3.84,3.84,0,0,1-1.07,0c-.34,0-.32-.07-.5.23s-.38.56-.58.83l-1.32,1.69c.06.06.1.12.15.16.67.49,1.32,1,2,1.45a4.47,4.47,0,0,0,3.14.74c.57-.09,1.14-.17,1.7-.29a1.29,1.29,0,0,0,1-.84,2.09,2.09,0,0,0,.07-.36,2.09,2.09,0,0,1,.5-1c.33-.41.63-.83,1-1.24a3.12,3.12,0,0,1,.4-.32l.06,0a1.77,1.77,0,0,1,0,.23c-.08.36-.13.74-.24,1.1a5.56,5.56,0,0,1-.74,1.58c-.36.51-.78,1-1.15,1.45A6.86,6.86,0,0,1,29,17.78a.9.9,0,0,0-.1.09c-.28.53-.83.7-1.27,1a1.3,1.3,0,0,1-.53.14l-1.73.24a3,3,0,0,1-2.18-.47L21,17.31c-.25-.17-.48-.36-.73-.51a7.31,7.31,0,0,1-1.47-1.36,6,6,0,0,1-1.54-3c-.14-.84-.16-1.7-.23-2.56a3.11,3.11,0,0,1,.2-1.41c.09-.22.22-.43.33-.65.23-.43.43-.89.7-1.3a11.17,11.17,0,0,1,.82-1c.28.14.35.27.29.53a8.32,8.32,0,0,0,1.12,6.24,6.35,6.35,0,0,0,1.34,1.35,1.26,1.26,0,0,0,.25.11,1.54,1.54,0,0,0-.12-.3,11.65,11.65,0,0,1-1.14-3.08,9.54,9.54,0,0,0-.59-1.59c-.12-.3-.26-.6-.35-.9A.49.49,0,0,1,20,7.48c.33-.52.68-1,1-1.51a.68.68,0,0,1,1.12,0c.35.52.67,1,1,1.59a1,1,0,0,1,.11.42,5.94,5.94,0,0,0,.57,2l.27.65a1.27,1.27,0,0,0,.13.19Z"/><path class="cls-1" d="M37.86,19.19a3.91,3.91,0,0,1-.57-1.65c0-1-.07-1.92-.11-2.88a.66.66,0,0,0,0-.28c-.11-.22,0-.36.15-.49s.16-.55.07-.62a.28.28,0,0,0-.24,0l-1,.41-.43.12.16-.83c.22.07.34,0,.36-.23s.13-.21.21-.3a2.63,2.63,0,0,1,.36-.45.35.35,0,0,0,0-.54c0-.06-.09-.2-.06-.22a.43.43,0,0,1,.28-.13c.39,0,.4,0,.37-.44,0-.66-.08-1.32-.09-2a7.31,7.31,0,0,0-.45-2.22,1.24,1.24,0,0,0-1.12-.85c-.57-.06-1.14-.14-1.7-.22l-.11,0a3.35,3.35,0,0,1,1.27-2.24,1.83,1.83,0,0,1,1.09-.31,2.12,2.12,0,0,1,.44,0,2.55,2.55,0,0,0,1.36-.15,1,1,0,0,1,1.23,1c0,.59,0,1.19,0,1.79a1.49,1.49,0,0,0,.06.29,2.19,2.19,0,0,0,.26-.23,20.24,20.24,0,0,1,1.25-1.64,8.33,8.33,0,0,1,1.4-1.09c.12-.08.37,0,.54.06a3.81,3.81,0,0,1,1.69,1.44,5.09,5.09,0,0,1,1,2.75c0,.13,0,.26.06.39s.12.21.27.14L46,7.45c.18-.06.29,0,.3.2a4.86,4.86,0,0,0,0,.66c.07.59-.36.95-.59,1.4a13.36,13.36,0,0,1-2.19,2.88.81.81,0,0,0-.21.31c-.18.53-.65.75-1.09,1a.25.25,0,0,1-.22,0,1.58,1.58,0,0,0-.86-.29l-1.37-.26c-.22,0-.26,0-.26.24a18.33,18.33,0,0,0,.12,3.31c0,.07,0,.14,0,.2a.8.8,0,0,1-.48.92,1.65,1.65,0,0,0-.59.61A1.09,1.09,0,0,1,37.86,19.19Zm1.41-8.5a4.49,4.49,0,0,1,.46-.06,9.73,9.73,0,0,1,1.08,0,11.36,11.36,0,0,1,1.16.24l1.17.32c.44.12.68-.1.62-.54a2.64,2.64,0,0,1,0-.49,1.23,1.23,0,0,0,0-.19c-.07-.35-.15-.7-.21-1.05,0-.17,0-.36-.08-.53a6.62,6.62,0,0,0-1.3-2.33,1,1,0,0,0-.25-.21l-.55-.37a.69.69,0,0,0-.91,0,2.91,2.91,0,0,1-1,.67c-.06,0-.14.15-.13.19a2.21,2.21,0,0,1,0,1c0,1,0,2.07,0,3.1A2.06,2.06,0,0,0,39.27,10.69Z"/><path class="cls-1" d="M131.77,9.63a4,4,0,0,1-.25-.38.57.57,0,0,0-.39-.26c-.13,0-.25-.17-.37-.26s-.26-.18-.38-.28-.12-.13-.12-.19a.84.84,0,0,0-.47-.79c-.7-.44-1.41-.86-2.1-1.31-.43-.27-.83-.58-1.24-.89a.25.25,0,0,1,0-.39c.57-.68,1.12-1.37,1.69-2,.25-.3.35-.33.68-.12a15.32,15.32,0,0,1,2,1.28c.36.3.76.51,1.14.77a.43.43,0,0,0,.71-.26.84.84,0,0,1,.14-.24,6.53,6.53,0,0,1,.54-.64c.21-.21.44-.39.67-.59s.51-.38.74-.59a1.53,1.53,0,0,1,.74-.45.42.42,0,0,1,.44.22c.21.32.46.63.7.93l.55.68s.08.07.08.11c.06.36.36.55.58.78s.42.44.64.64a2.55,2.55,0,0,0,.39.28.28.28,0,0,1,.11.47c0,.07-.08.15-.16.28l.36-.09c.21-.06.27,0,.26.2s0,.46,0,.69c0,1-.1,2.08-.12,3.12,0,.52,0,1,.06,1.56a.24.24,0,0,0,0,.09c.18.2.08.4,0,.58A2.29,2.29,0,0,0,139,14c0,.32,0,.66.07,1s.13.56.15.84,0,.64,0,.95a.45.45,0,0,1-.32.42,1.9,1.9,0,0,0-1,.86,1.75,1.75,0,0,1-1,.59,5.46,5.46,0,0,1,.24-.57.3.3,0,0,0-.07-.44.86.86,0,0,1-.31-.59c-.07-.34-.16-.68-.22-1a3.55,3.55,0,0,1-.06-.56c0-.21.08-.43-.08-.62a.23.23,0,0,1,0-.12c0-.37,0-.73,0-1.09a.84.84,0,0,1,.32-.65.68.68,0,0,0,.09-.78.62.62,0,0,1-.05-.27c.07-1,.14-2,.2-3a.75.75,0,0,0-.31-.67,12.25,12.25,0,0,1-1.88-1.93c-.23-.29-.33-.29-.51,0A.92.92,0,0,0,134,7c0,.06-.11.14-.17.21s-.26.29-.38.44-.36.5-.57.73-.66.67-1,1C131.88,9.46,131.84,9.53,131.77,9.63Z"/><path class="cls-1" d="M26,5.43c-.57,0-1.14,0-1.71,0-.39,0-.78.07-1.17.06a2.88,2.88,0,0,1-.87-.19c-.38-.15-.43-.39-.18-.7.46-.6,1-1.17,1.4-1.8a.63.63,0,0,1,.63-.27c.51,0,1,0,1.52.07.2,0,.39,0,.58,0l.57,0a1.93,1.93,0,0,0,.48,0,4.31,4.31,0,0,1,2.3.25c.05,0,.13.07.14.11a1,1,0,0,1-.09.86,3.72,3.72,0,0,1-.4.49,1.73,1.73,0,0,0-.43.63.73.73,0,0,1-.76.49l-1,0H26Z"/><path class="cls-1" d="M84.48,2.68c.71-.05,1.42-.12,2.13-.15.46,0,.91.05,1.37.08l1.5.09c.32,0,.4.14.23.43-.29.55-.62,1.09-1,1.62-.13.21-.3.41-.46.62a.88.88,0,0,1-.63.35,4,4,0,0,1-1.15-.11,9.44,9.44,0,0,0-2.6,0,2.66,2.66,0,0,1-.63,0l-.49,0c-.22,0-.29-.11-.2-.31a4.37,4.37,0,0,1,.31-.61c.38-.59.77-1.19,1.17-1.77a2.39,2.39,0,0,1,.36-.35Z"/><path class="cls-1" d="M68.39,18.18c-.27-.14-.41,0-.53.2s-.2.15-.27.25a1.41,1.41,0,0,1-.76.55c-.19.06-.32.26-.5.37s-.25.06-.24-.14c0-.36,0-.72,0-1.08,0,0,0,0,0-.07a4.88,4.88,0,0,1,.19-1.78c0-.31.07-.61.08-.92a.29.29,0,0,0-.07-.22c-.15-.15-.11-.27,0-.39s.2-.18.29-.28a7.31,7.31,0,0,0,.52-.59,1.36,1.36,0,0,1,1-.48c.19,0,.28.11.28.34,0,.41,0,.81,0,1.22,0,.73-.07,1.46-.09,2.19a1.56,1.56,0,0,0,.1.4c0,.12,0,.25.07.38Z"/></g></g></svg>